# WaveFront *.obj file (generated by Autodesk ATF)

mtllib Leeds.mtl

g Solid1

v -7.450000 -2.900000 -4.350000
v -7.450000 -2.900000 4.350000
v -7.450000 0.100000 -4.350000
v -7.450000 0.100000 4.350000
v -7.300000 -2.900000 -4.200000
v -7.300000 -2.900000 4.200000
v -7.300000 0.000000 -4.200000
v -7.300000 0.000000 4.200000
v 7.300000 -2.900000 -4.200000
v 7.300000 -2.900000 4.200000
v 7.300000 0.000000 -4.200000
v 7.300000 0.000000 4.200000
v 7.450000 -2.900000 -4.350000
v 7.450000 -2.900000 4.350000
v 7.450000 0.100000 -4.350000
v 7.450000 0.100000 4.350000
vt 0.000000 10.000000 0.000000
vt 840.000000 10.000000 0.000000
vt 840.000000 300.000000 0.000000
vt 0.000000 300.000000 0.000000
vt 0.000000 10.000000 0.000000
vt 1460.000000 10.000000 0.000000
vt 1460.000000 300.000000 0.000000
vt 0.000000 300.000000 0.000000
vt 0.000000 10.000000 0.000000
vt 1460.000000 10.000000 0.000000
vt 1460.000000 300.000000 0.000000
vt 0.000000 300.000000 0.000000
vt 0.000000 10.000000 0.000000
vt 840.000000 10.000000 0.000000
vt 840.000000 300.000000 0.000000
vt 0.000000 300.000000 0.000000
vt 0.000000 0.000000 0.000000
vt 870.000000 0.000000 0.000000
vt 870.000000 300.000000 0.000000
vt 0.000000 300.000000 0.000000
vt 0.000000 0.000000 0.000000
vt 1490.000000 0.000000 0.000000
vt 1490.000000 300.000000 0.000000
vt 0.000000 300.000000 0.000000
vt 0.000000 0.000000 0.000000
vt 870.000000 0.000000 0.000000
vt 870.000000 300.000000 0.000000
vt 0.000000 300.000000 0.000000
vt 0.000000 0.000000 0.000000
vt 1490.000000 0.000000 0.000000
vt 1490.000000 300.000000 0.000000
vt 0.000000 300.000000 0.000000
vt 435.000000 -745.000000 0.000000
vt 435.000000 745.000000 0.000000
vt -435.000000 745.000000 0.000000
vt -435.000000 -745.000000 0.000000
vt -420.000000 -730.000000 0.000000
vt -420.000000 730.000000 0.000000
vt 420.000000 730.000000 0.000000
vt 420.000000 -730.000000 0.000000
vt -435.000000 745.000000 0.000000
vt -435.000000 -745.000000 0.000000
vt 435.000000 -745.000000 0.000000
vt 435.000000 745.000000 0.000000
vt 420.000000 730.000000 0.000000
vt -420.000000 730.000000 0.000000
vt -420.000000 -730.000000 0.000000
vt 420.000000 -730.000000 0.000000
vn 100.000000 0.000000 0.000000
vn 100.000000 0.000000 0.000000
vn 100.000000 0.000000 0.000000
vn 100.000000 0.000000 0.000000
vn 0.000000 0.000000 -100.000000
vn 0.000000 0.000000 -100.000000
vn 0.000000 0.000000 -100.000000
vn 0.000000 0.000000 -100.000000
vn 0.000000 0.000000 100.000000
vn 0.000000 0.000000 100.000000
vn 0.000000 0.000000 100.000000
vn 0.000000 0.000000 100.000000
vn -100.000000 0.000000 0.000000
vn -100.000000 0.000000 0.000000
vn -100.000000 0.000000 0.000000
vn -100.000000 0.000000 0.000000
vn -100.000000 0.000000 0.000000
vn -100.000000 0.000000 0.000000
vn -100.000000 0.000000 0.000000
vn -100.000000 0.000000 0.000000
vn 0.000000 0.000000 100.000000
vn 0.000000 0.000000 100.000000
vn 0.000000 0.000000 100.000000
vn 0.000000 0.000000 100.000000
vn 100.000000 0.000000 0.000000
vn 100.000000 0.000000 0.000000
vn 100.000000 0.000000 0.000000
vn 100.000000 0.000000 0.000000
vn 0.000000 0.000000 -100.000000
vn 0.000000 0.000000 -100.000000
vn 0.000000 0.000000 -100.000000
vn 0.000000 0.000000 -100.000000
vn 0.000000 -100.000000 0.000000
vn 0.000000 -100.000000 0.000000
vn 0.000000 -100.000000 0.000000
vn 0.000000 -100.000000 0.000000
vn 0.000000 -100.000000 0.000000
vn 0.000000 -100.000000 0.000000
vn 0.000000 -100.000000 0.000000
vn 0.000000 -100.000000 0.000000
vn 0.000000 100.000000 0.000000
vn 0.000000 100.000000 0.000000
vn 0.000000 100.000000 0.000000
vn 0.000000 100.000000 0.000000
vn 0.000000 -100.000000 0.000000
vn 0.000000 -100.000000 0.000000
vn 0.000000 -100.000000 0.000000
vn 0.000000 -100.000000 0.000000
usemtl 191,191,191
f 7/1/1 8/2/2 5/4/4
f 5/4/4 8/2/2 6/3/3
f 8/5/5 12/6/6 6/8/8
f 6/8/8 12/6/6 10/7/7
f 11/9/9 7/10/10 9/12/12
f 9/12/12 7/10/10 5/11/11
f 12/13/13 11/14/14 10/16/16
f 10/16/16 11/14/14 9/15/15
f 4/17/17 3/18/18 2/20/20
f 2/20/20 3/18/18 1/19/19
f 16/21/21 4/22/22 14/24/24
f 14/24/24 4/22/22 2/23/23
f 15/25/25 16/26/26 13/28/28
f 13/28/28 16/26/26 14/27/27
f 3/29/29 15/30/30 1/32/32
f 1/32/32 15/30/30 13/31/31
f 13/34/34 9/39/39 1/33/33
f 1/33/33 9/39/39 5/40/40
f 1/33/33 5/40/40 6/37/37
f 13/34/34 14/35/35 9/39/39
f 9/39/39 14/35/35 10/38/38
f 10/38/38 14/35/35 2/36/36
f 10/38/38 2/36/36 6/37/37
f 6/37/37 2/36/36 1/33/33
f 3/42/42 4/43/43 15/41/41
f 15/41/41 4/43/43 16/44/44
f 11/45/45 12/46/46 7/48/48
f 7/48/48 12/46/46 8/47/47

# 16 vertices
# 48 texture params
# 48 normals
# 28 facets

# 1 groups
